<mxfile host="app.diagrams.net" modified="2023-12-19T11:18:44.773Z" agent="Mozilla/5.0 (Windows NT 10.0; Win64; x64) AppleWebKit/537.36 (KHTML, like Gecko) Chrome/120.0.0.0 Safari/537.36" version="22.1.11" etag="MfuhB7WbG2HPD3InRLm6" type="github">
  <diagram name="Page-1" id="6RWQSuVdr8p4_naYqTZK">
    <mxGraphModel>
      <root>
        <mxCell id="0" />
        <mxCell id="1" parent="0" />
      </root>
    </mxGraphModel>
  </diagram>
</mxfile>
